<?xml version="1.0" standalone="no"?>
<!DOCTYPE svg PUBLIC "-//W3C//DTD SVG 20010904//EN"
 "http://www.w3.org/TR/2001/REC-SVG-20010904/DTD/svg10.dtd">
<svg version="1.0" xmlns="http://www.w3.org/2000/svg"
 width="500.000000pt" height="500.000000pt" viewBox="0 0 500.000000 500.000000"
 preserveAspectRatio="xMidYMid meet">

<g transform="translate(0.000000,500.000000) scale(0.100000,-0.100000)"
fill="#000000" stroke="none">
<path d="M1199 4825 c-34 -19 -55 -68 -42 -98 6 -12 67 -125 137 -252 106
-195 123 -231 108 -236 -9 -4 -92 -20 -184 -37 -181 -33 -233 -54 -245 -100
-4 -16 0 -36 9 -52 19 -34 619 -869 897 -1249 118 -162 220 -312 227 -332 10
-29 14 -235 16 -926 3 -824 2 -890 -14 -919 -51 -93 -142 -141 -421 -223 -113
-33 -215 -65 -226 -70 -25 -14 -35 -44 -26 -88 5 -30 13 -38 58 -58 71 -33
151 -52 292 -72 343 -47 1067 3 1216 84 48 26 49 27 49 74 0 44 -3 50 -32 65
-17 9 -123 40 -234 70 -111 29 -225 64 -253 79 -74 37 -125 87 -151 148 l-23
52 3 510 c1 281 5 681 9 890 7 419 5 407 75 485 17 19 164 221 326 447 366
512 422 591 536 750 50 71 116 163 147 207 32 43 57 89 57 102 0 44 -26 47
-228 25 -492 -54 -722 -65 -1184 -56 l-374 7 -28 50 c-15 27 -25 52 -21 56 4
4 231 9 506 11 l499 3 6 34 c3 19 4 40 1 48 -8 21 -430 30 -781 16 -234 -9
-291 -8 -298 2 -4 7 -76 138 -160 291 l-152 277 -35 0 c-20 -1 -48 -7 -62 -15z
m296 -715 c8 -16 15 -32 15 -36 0 -8 -121 2 -207 18 -35 6 -60 14 -57 17 7 7
144 28 196 30 32 1 40 -3 53 -29z m-263 -95 c40 -9 130 -22 201 -30 70 -8 131
-16 136 -19 5 -3 52 -88 106 -188 53 -101 101 -187 106 -193 12 -12 199 -34
199 -23 0 12 -61 132 -136 269 -35 64 -64 118 -64 120 0 2 134 2 297 0 386 -4
797 18 1169 63 72 8 103 9 101 2 -7 -18 -795 -1117 -836 -1165 -118 -142 -339
-166 -488 -54 -24 17 -826 1123 -886 1221 -11 16 5 15 95 -3z"/>
</g>
</svg>
